<svg width="82" height="53" viewBox="0 0 82 53" fill="none" xmlns="http://www.w3.org/2000/svg">
<path d="M40.2452 38.1988L40.2452 38.5738L40.2452 38.1988ZM4.75392 37.9309C4.60747 38.0773 4.60745 38.3148 4.75388 38.4612L7.14019 40.8479C7.28662 40.9944 7.52406 40.9944 7.67052 40.8479C7.81698 40.7015 7.817 40.4641 7.67056 40.3176L5.5494 38.1961L7.67088 36.075C7.81734 35.9285 7.81736 35.6911 7.67092 35.5446C7.52449 35.3982 7.28705 35.3982 7.14059 35.5446L4.75392 37.9309ZM5.01904 38.5711L6.0255 38.5712L6.02556 37.8212L5.0191 37.8211L5.01904 38.5711ZM9.04489 38.5714L11.0578 38.5716L11.0579 37.8216L9.04494 37.8214L9.04489 38.5714ZM14.0772 38.5718L16.0901 38.5719L16.0902 37.8219L14.0772 37.8218L14.0772 38.5718ZM19.1095 38.5722L21.1224 38.5723L21.1225 37.8223L19.1096 37.8222L19.1095 38.5722ZM24.1418 38.5725L26.1547 38.5727L26.1548 37.8227L24.1419 37.8225L24.1418 38.5725ZM29.1741 38.5729L31.187 38.5731L31.1871 37.8231L29.1742 37.8229L29.1741 38.5729ZM34.2064 38.5733L36.2193 38.5735L36.2194 37.8235L34.2065 37.8233L34.2064 38.5733ZM39.2387 38.5737L40.2452 38.5738L40.2452 37.8238L39.2388 37.8237L39.2387 38.5737ZM40.2452 38.5738C40.5873 38.5738 40.928 38.5685 41.2672 38.5581L41.2441 37.8084C40.9126 37.8187 40.5796 37.8238 40.2452 37.8238L40.2452 38.5738ZM44.3126 38.3215C44.9912 38.2366 45.6626 38.1306 46.3262 38.0044L46.1861 37.2676C45.538 37.3909 44.8822 37.4943 44.2195 37.5773L44.3126 38.3215ZM49.2969 37.2908C49.9523 37.0998 50.5986 36.8885 51.2351 36.6578L50.9795 35.9527C50.3581 36.1779 49.727 36.3842 49.087 36.5708L49.2969 37.2908ZM54.0549 35.4796C54.6704 35.1871 55.2748 34.8756 55.8672 34.5461L55.5027 33.8907C54.9241 34.2125 54.334 34.5166 53.733 34.8023L54.0549 35.4796ZM58.4644 32.935C59.025 32.5492 59.5723 32.1462 60.1059 31.727L59.6425 31.1373C59.1213 31.5468 58.5867 31.9404 58.0392 32.3172L58.4644 32.935ZM62.417 29.7272C62.9095 29.2587 63.387 28.775 63.8487 28.2769L63.2986 27.767C62.8476 28.2536 62.3812 28.7261 61.9001 29.1838L62.417 29.7272ZM65.8187 25.9405C66.2315 25.4012 66.6276 24.8489 67.0062 24.2844L66.3833 23.8667C66.0134 24.4182 65.6265 24.9577 65.2232 25.4845L65.8187 25.9405ZM68.5867 21.6686C68.9098 21.0719 69.2144 20.4643 69.5 19.8466L68.8192 19.5319C68.5403 20.1351 68.2427 20.7286 67.9271 21.3115L68.5867 21.6686ZM70.6491 17.0145C70.8738 16.3749 71.0786 15.7266 71.263 15.0705L70.541 14.8676C70.3609 15.5083 70.1609 16.1413 69.9415 16.766L70.6491 17.0145ZM71.9477 12.0922C72.0676 11.4259 72.1666 10.7532 72.2442 10.0749L71.499 9.98966C71.4233 10.652 71.3266 11.3088 71.2096 11.9594L71.9477 12.0922ZM72.4456 7.02635C72.4578 6.3509 72.4488 5.67125 72.4178 4.98812L71.6686 5.02204C71.6988 5.68931 71.7076 6.35311 71.6957 7.01274L72.4456 7.02635ZM72.1365 1.94652C72.0894 1.6104 72.0371 1.27372 71.9792 0.936546L71.24 1.06333C71.2965 1.39289 71.3477 1.72194 71.3937 2.05041L72.1365 1.94652ZM40.2452 38.1988L40.2452 38.9488L40.2452 38.1988ZM4.48878 37.6657C4.19586 37.9586 4.19583 38.4335 4.4887 38.7264L9.26131 43.4997C9.55418 43.7926 10.0291 43.7927 10.322 43.4998C10.6149 43.2069 10.6149 42.7321 10.322 42.4391L6.07973 38.1962L10.3227 33.9539C10.6156 33.661 10.6156 33.1861 10.3228 32.8932C10.0299 32.6003 9.55503 32.6002 9.26211 32.8931L4.48878 37.6657ZM5.01901 38.9461L6.02547 38.9462L6.02559 37.4462L5.01913 37.4461L5.01901 38.9461ZM9.04486 38.9464L11.0578 38.9466L11.0579 37.4466L9.04497 37.4464L9.04486 38.9464ZM14.0772 38.9468L16.0901 38.9469L16.0902 37.4469L14.0773 37.4468L14.0772 38.9468ZM19.1095 38.9472L21.1224 38.9473L21.1225 37.4473L19.1096 37.4472L19.1095 38.9472ZM24.1418 38.9475L26.1547 38.9477L26.1548 37.4477L24.1419 37.4475L24.1418 38.9475ZM29.1741 38.9479L31.187 38.9481L31.1871 37.4481L29.1742 37.4479L29.1741 38.9479ZM34.2064 38.9483L36.2193 38.9485L36.2194 37.4485L34.2065 37.4483L34.2064 38.9483ZM39.2387 38.9487L40.2452 38.9488L40.2453 37.4488L39.2388 37.4487L39.2387 38.9487ZM40.2452 38.9488C40.5911 38.9488 40.9357 38.9435 41.2788 38.9329L41.2325 37.4336C40.9049 37.4437 40.5758 37.4488 40.2453 37.4488L40.2452 38.9488ZM44.3592 38.6936C45.0456 38.6077 45.7248 38.5005 46.3963 38.3728L46.116 36.8992C45.4757 37.021 44.8278 37.1232 44.1729 37.2052L44.3592 38.6936ZM49.4019 37.6508C50.065 37.4575 50.7189 37.2438 51.3629 37.0103L50.8517 35.6001C50.2378 35.8227 49.6143 36.0265 48.982 36.2108L49.4019 37.6508ZM54.2159 35.8183C54.8387 35.5223 55.4501 35.2072 56.0495 34.8739L55.3204 33.563C54.7488 33.8809 54.1657 34.1813 53.572 34.4636L54.2159 35.8183ZM58.6771 33.2439C59.2441 32.8536 59.7979 32.446 60.3376 32.0218L59.4108 30.8424C58.8958 31.2471 58.3675 31.636 57.8266 32.0083L58.6771 33.2439ZM62.6755 29.9989C63.1737 29.525 63.6566 29.0357 64.1237 28.5319L63.0236 27.5121C62.5779 27.9929 62.117 28.4599 61.6416 28.9121L62.6755 29.9989ZM66.1164 26.1684C66.534 25.623 66.9347 25.0643 67.3176 24.4932L66.0718 23.6578C65.7064 24.2028 65.324 24.736 64.9254 25.2565L66.1164 26.1684ZM68.9164 21.8471C69.2433 21.2435 69.5515 20.6288 69.8404 20.004L68.4788 19.3745C68.2033 19.9706 67.9092 20.557 67.5974 21.1329L68.9164 21.8471ZM71.0029 17.1388C71.2302 16.4916 71.4375 15.8358 71.624 15.172L70.1799 14.7662C70.0021 15.3991 69.8044 16.0245 69.5877 16.6417L71.0029 17.1388ZM72.3168 12.1586C72.438 11.4844 72.5383 10.8038 72.6168 10.1175L71.1265 9.94705C71.0516 10.6014 70.9561 11.2503 70.8405 11.893L72.3168 12.1586ZM72.8205 7.03315C72.8329 6.3498 72.8237 5.66222 72.7925 4.97116L71.294 5.03899C71.3238 5.69834 71.3326 6.35421 71.3207 7.00593L72.8205 7.03315ZM72.5078 1.89458C72.4603 1.55463 72.4073 1.21413 72.3488 0.873157L70.8704 1.12672C70.9263 1.45247 70.9769 1.77771 71.0223 2.10235L72.5078 1.89458Z" fill="#27CDC2"/>
</svg>
