<?xml version="1.0" encoding="utf-8"?><svg xmlns="http://www.w3.org/2000/svg" xmlns:xlink="http://www.w3.org/1999/xlink"><symbol fill="none" viewBox="0 0 82 53" id="arrow" xmlns="http://www.w3.org/2000/svg"><path d="M40.245 38.199v.375-.375zM4.754 37.93a.375.375 0 0 0 0 .53l2.386 2.387a.375.375 0 1 0 .53-.53l-2.12-2.122 2.12-2.121a.375.375 0 0 0-.53-.53L4.755 37.93zm.265.64h1.006v-.75H5.02v.75zm4.026 0h2.013v-.75H9.045v.75zm5.032 0h2.013v-.75h-2.013v.75zm5.033.001h2.012v-.75H19.11v.75zm5.032 0h2.013v-.75h-2.013v.75zm5.032 0l2.013.001v-.75h-2.013v.75zm5.032.001h2.013v-.75h-2.013v.75zm5.033 0h1.006v-.75H39.24v.75zm1.006 0c.342 0 .683-.005 1.022-.015l-.023-.75c-.331.01-.664.016-.999.016v.75zm4.068-.252a32.12 32.12 0 0 0 2.013-.317l-.14-.736c-.648.123-1.304.226-1.967.31l.094.743zm4.984-1.03a31.787 31.787 0 0 0 1.938-.633l-.255-.705c-.622.225-1.253.431-1.893.618l.21.72zm4.758-1.811c.615-.293 1.22-.604 1.812-.934l-.364-.655a31.2 31.2 0 0 1-1.77.911l.322.678zm4.41-2.545a32.28 32.28 0 0 0 1.64-1.208l-.462-.59c-.522.41-1.056.803-1.604 1.18l.425.618zm3.952-3.208c.492-.468.97-.952 1.432-1.45l-.55-.51c-.451.487-.918.96-1.399 1.417l.517.543zm3.402-3.787c.412-.539.809-1.091 1.187-1.656l-.623-.417a32.36 32.36 0 0 1-1.16 1.617l.596.456zm2.768-4.271a32.94 32.94 0 0 0 .913-1.822l-.68-.315a31.53 31.53 0 0 1-.893 1.78l.66.357zm2.062-4.654c.225-.64.43-1.288.614-1.945l-.722-.202c-.18.64-.38 1.273-.6 1.898l.708.249zm1.299-4.923c.12-.666.219-1.339.296-2.017L71.5 9.99a30.635 30.635 0 0 1-.29 1.97l.739.132zm.498-5.066a32.15 32.15 0 0 0-.028-2.038l-.75.034c.03.667.04 1.331.028 1.99l.75.014zm-.31-5.08a33.14 33.14 0 0 0-.157-1.01l-.739.127c.056.33.108.659.154.987l.742-.103zM40.246 38.2v.75-.75zm-35.757-.533a.75.75 0 0 0 0 1.06L9.26 43.5a.75.75 0 1 0 1.061-1.06L6.08 38.195l4.243-4.242a.75.75 0 0 0-1.06-1.06l-4.774 4.772zm.53 1.28h1.006v-1.5H5.02v1.5zm4.026 0h2.013v-1.5H9.045v1.5zm5.032 0h2.013v-1.5h-2.013v1.5zm5.033.001h2.012v-1.5H19.11v1.5zm5.032 0h2.013v-1.5h-2.013v1.5zm5.032 0l2.013.001v-1.5h-2.013v1.5zm5.032.001h2.013v-1.5h-2.013v1.5zm5.033 0h1.006v-1.5H39.24v1.5zm1.006 0c.346 0 .69-.005 1.034-.015l-.047-1.5c-.327.01-.656.016-.987.016v1.5zm4.114-.254a32.514 32.514 0 0 0 2.037-.321l-.28-1.474c-.64.122-1.288.224-1.943.306l.186 1.489zm5.043-1.043a32.144 32.144 0 0 0 1.96-.64l-.51-1.41a31.65 31.65 0 0 1-1.87.61l.42 1.44zm4.814-1.833a32.327 32.327 0 0 0 1.834-.944l-.73-1.311a30.3 30.3 0 0 1-1.748.9l.644 1.355zm4.461-2.574c.567-.39 1.12-.798 1.66-1.222l-.926-1.18c-.515.405-1.044.794-1.584 1.166l.85 1.236zM62.675 30a32.33 32.33 0 0 0 1.449-1.467l-1.1-1.02c-.446.48-.907.948-1.382 1.4L62.675 30zm3.441-3.83c.418-.546.819-1.105 1.202-1.676l-1.246-.835a31.275 31.275 0 0 1-1.147 1.598l1.191.912zm2.8-4.322c.327-.604.636-1.218.924-1.843l-1.361-.63a31.08 31.08 0 0 1-.882 1.759l1.32.714zm2.087-4.708a32.79 32.79 0 0 0 .621-1.967l-1.444-.406a30.838 30.838 0 0 1-.592 1.876l1.415.497zm1.314-4.98c.121-.675.221-1.355.3-2.042l-1.49-.17c-.075.654-.17 1.303-.286 1.946l1.476.266zm.504-5.126a33.07 33.07 0 0 0-.028-2.062l-1.499.068c.03.66.039 1.315.027 1.967l1.5.027zm-.313-5.138c-.048-.34-.1-.68-.16-1.022l-1.478.254c.056.325.107.65.152.975l1.486-.207z" fill="#27CDC2"/></symbol></svg>